<?xml version="1.0" encoding="UTF-8" standalone="no"?>
<!-- Created with Inkscape (http://www.inkscape.org/) -->

<svg
   xmlns:dc="http://purl.org/dc/elements/1.1/"
   xmlns:cc="http://creativecommons.org/ns#"
   xmlns:rdf="http://www.w3.org/1999/02/22-rdf-syntax-ns#"
   xmlns:svg="http://www.w3.org/2000/svg"
   xmlns="http://www.w3.org/2000/svg"
   xmlns:xlink="http://www.w3.org/1999/xlink"
   xmlns:sodipodi="http://sodipodi.sourceforge.net/DTD/sodipodi-0.dtd"
   xmlns:inkscape="http://www.inkscape.org/namespaces/inkscape"
   id="svg2"
   version="1.1"
   inkscape:version="0.48.2 r9819"
   width="173"
   height="60"
   xml:space="preserve"
   sodipodi:docname="google_play_de.svg"><metadata
     id="metadata8"><rdf:RDF><cc:Work
         rdf:about=""><dc:format>image/svg+xml</dc:format><dc:type
           rdf:resource="http://purl.org/dc/dcmitype/StillImage" /><dc:title /></cc:Work></rdf:RDF></metadata><defs
     id="defs6"><clipPath
       clipPathUnits="userSpaceOnUse"
       id="clipPath16"><path
         d="m 0,91.5 229.5,0 L 229.5,0 0,0 0,91.5 z"
         id="path18"
         inkscape:connector-curvature="0" /></clipPath><linearGradient
       x1="0"
       y1="0"
       x2="1"
       y2="0"
       gradientUnits="userSpaceOnUse"
       gradientTransform="matrix(-6.1052094,26.529022,26.529022,6.1052094,31.091797,38.164062)"
       spreadMethod="pad"
       id="linearGradient126"><stop
         style="stop-opacity:1;stop-color:#d6ffa1"
         offset="0"
         id="stop128" /><stop
         style="stop-opacity:1;stop-color:#00a3b5"
         offset="1"
         id="stop130" /></linearGradient><linearGradient
       x1="0"
       y1="0"
       x2="1"
       y2="0"
       gradientUnits="userSpaceOnUse"
       gradientTransform="matrix(15.624756,-26.685089,-26.685089,-15.624756,30.328613,56.373535)"
       spreadMethod="pad"
       id="linearGradient146"><stop
         style="stop-opacity:1;stop-color:#ff177b"
         offset="0"
         id="stop148" /><stop
         style="stop-opacity:1;stop-color:#ffec73"
         offset="1"
         id="stop150" /></linearGradient><linearGradient
       x1="0"
       y1="0"
       x2="1"
       y2="0"
       gradientUnits="userSpaceOnUse"
       gradientTransform="matrix(-9.4440765,36.438843,36.438843,9.4440918,25.668945,28.094727)"
       spreadMethod="pad"
       id="linearGradient166"><stop
         style="stop-opacity:1;stop-color:#63ffd4"
         offset="0"
         id="stop168" /><stop
         style="stop-opacity:1;stop-color:#064aa2"
         offset="1"
         id="stop170" /></linearGradient><linearGradient
       x1="0"
       y1="0"
       x2="1"
       y2="0"
       gradientUnits="userSpaceOnUse"
       gradientTransform="matrix(-32.734833,-4.4841156,-4.4841156,32.734848,44.714356,30.482422)"
       spreadMethod="pad"
       id="linearGradient186"><stop
         style="stop-opacity:1;stop-color:#ff4521"
         offset="0"
         id="stop188" /><stop
         style="stop-opacity:1;stop-color:#8a33db"
         offset="1"
         id="stop190" /></linearGradient><linearGradient
       inkscape:collect="always"
       xlink:href="#linearGradient126"
       id="linearGradient3138"
       gradientUnits="userSpaceOnUse"
       gradientTransform="matrix(-6.1052094,26.529022,26.529022,6.1052094,31.091797,38.164062)"
       spreadMethod="pad"
       x1="0"
       y1="0"
       x2="1"
       y2="0" /><linearGradient
       inkscape:collect="always"
       xlink:href="#linearGradient146"
       id="linearGradient3140"
       gradientUnits="userSpaceOnUse"
       gradientTransform="matrix(15.624756,-26.685089,-26.685089,-15.624756,30.328613,56.373535)"
       spreadMethod="pad"
       x1="0"
       y1="0"
       x2="1"
       y2="0" /><linearGradient
       inkscape:collect="always"
       xlink:href="#linearGradient166"
       id="linearGradient3142"
       gradientUnits="userSpaceOnUse"
       gradientTransform="matrix(-9.4440765,36.438843,36.438843,9.4440918,25.668945,28.094727)"
       spreadMethod="pad"
       x1="0"
       y1="0"
       x2="1"
       y2="0" /><linearGradient
       inkscape:collect="always"
       xlink:href="#linearGradient186"
       id="linearGradient3144"
       gradientUnits="userSpaceOnUse"
       gradientTransform="matrix(-32.734833,-4.4841156,-4.4841156,32.734848,44.714356,30.482422)"
       spreadMethod="pad"
       x1="0"
       y1="0"
       x2="1"
       y2="0" /></defs><sodipodi:namedview
     pagecolor="#ffffff"
     bordercolor="#666666"
     borderopacity="1"
     objecttolerance="10"
     gridtolerance="10"
     guidetolerance="10"
     inkscape:pageopacity="0"
     inkscape:pageshadow="2"
     inkscape:window-width="1463"
     inkscape:window-height="902"
     id="namedview4"
     showgrid="false"
     inkscape:zoom="1.3281046"
     inkscape:cx="-7.1530485"
     inkscape:cy="57.187501"
     inkscape:window-x="0"
     inkscape:window-y="0"
     inkscape:window-maximized="0"
     inkscape:current-layer="g10" /><g
     id="g10"
     inkscape:groupmode="layer"
     inkscape:label="german_app"
     transform="matrix(1.25,0,0,-1.25,0,60.000005)"><g
       id="g3067"
       transform="matrix(0.63907973,0,0,0.63907973,-4.0117591,-5.8221401)"><g
         id="g12"><g
           clip-path="url(#clipPath16)"
           id="g14"><g
             transform="translate(221.9854,20.4502)"
             id="g20"><path
               id="path22"
               style="fill:#000000;fill-opacity:1;fill-rule:nonzero;stroke:none"
               d="m 0,0 c 0,-6.53 -4.797,-10.59 -11.322,-10.59 l -191.815,0 c -6.528,0 -11.821,5.297 -11.821,11.827 l 0,49.956 c 0,6.53 5.293,11.825 11.821,11.825 l 191.815,0 C -4.797,63.018 0,57.723 0,51.193 L 0,0 z"
               inkscape:connector-curvature="0" /></g><g
             transform="translate(221.9854,20.4502)"
             id="g24"><path
               id="path26"
               style="fill:none;stroke:#ffffff;stroke-width:1.5;stroke-linecap:butt;stroke-linejoin:miter;stroke-miterlimit:10;stroke-opacity:1;stroke-dasharray:none"
               d="m 0,0 c 0,-6.53 -4.797,-10.59 -11.322,-10.59 l -191.815,0 c -6.528,0 -11.821,5.297 -11.821,11.827 l 0,49.956 c 0,6.53 5.293,11.825 11.821,11.825 l 191.815,0 C -4.797,63.018 0,57.723 0,51.193 L 0,0 z"
               inkscape:connector-curvature="0" /></g><g
             transform="translate(149.1426,39.166)"
             id="g28"><path
               id="path30"
               style="fill:#ffffff;fill-opacity:1;fill-rule:nonzero;stroke:none"
               d="m 0,0 c 0.645,0.234 0.979,0.437 0.979,0.906 0,1.348 -1.525,2.905 -3.344,2.905 -1.349,0 -3.879,-1.05 -3.879,-4.696 0,-0.569 0.067,-1.175 0.101,-1.781 L 0,0 z m 4.786,-8.533 -1.614,-1.523 c -0.372,-0.205 -0.743,-0.443 -1.113,-0.612 -1.121,-0.509 -2.261,-0.637 -3.275,-0.637 -1.078,0 -2.767,0.07 -4.491,1.317 -2.396,1.687 -3.442,4.587 -3.442,7.114 0,5.232 4.258,7.798 7.732,7.798 1.215,0 2.462,-0.304 3.476,-0.945 1.685,-1.115 2.122,-2.564 2.364,-3.34 l -7.934,-3.205 -2.597,-0.203 c 0.84,-4.289 3.743,-6.784 6.95,-6.784 1.601,0 2.791,0.523 3.882,1.062 0,0 0.218,0.114 0.062,-0.042"
               inkscape:connector-curvature="0" /></g><g
             transform="translate(137.3418,30.8945)"
             id="g32"><path
               id="path34"
               style="fill:#ffffff;fill-opacity:1;fill-rule:nonzero;stroke:none"
               d="m 0,0 c 0,-1.312 0.234,-1.516 1.343,-1.618 0.578,-0.069 1.154,-0.099 1.724,-0.166 l -1.248,-0.743 -5.947,0 c 0.78,1.011 0.914,1.112 0.914,1.787 l 0,0.753 -0.013,20.063 -2.626,0 2.528,1.218 4.826,0 C 0.455,20.688 0.143,20.319 0.008,19.139 L 0,0 z"
               inkscape:connector-curvature="0" /></g><g
             transform="translate(126.6982,33.8652)"
             id="g36"><path
               id="path38"
               style="fill:#ffffff;fill-opacity:1;fill-rule:nonzero;stroke:none"
               d="m 0,0 c 0.78,0.778 0.848,1.854 0.848,2.466 0,2.427 -1.448,6.207 -4.252,6.207 -0.875,0 -1.824,-0.44 -2.362,-1.118 -0.57,-0.703 -0.741,-1.616 -0.741,-2.492 0,-2.26 1.318,-6.008 4.217,-6.008 0.846,0 1.756,0.411 2.29,0.945 m -0.971,-6.412 c -0.276,0.036 -0.442,0.036 -0.776,0.036 -0.306,0 -2.129,-0.066 -3.541,-0.54 -0.747,-0.273 -2.906,-1.08 -2.906,-3.478 0,-2.391 2.331,-4.116 5.937,-4.116 3.239,0 4.96,1.553 4.96,3.644 0,1.72 -1.113,2.629 -3.674,4.454 M 1.421,8.568 C 2.195,7.932 3.813,6.58 3.813,4.016 3.813,1.517 2.403,0.339 0.982,-0.776 0.547,-1.215 0.037,-1.691 0.037,-2.428 c 0,-0.746 0.51,-1.151 0.877,-1.453 l 1.219,-0.941 c 1.482,-1.251 2.833,-2.399 2.833,-4.728 0,-3.175 -3.072,-6.375 -8.877,-6.375 -4.89,0 -7.254,2.328 -7.254,4.825 0,1.216 0.604,2.937 2.601,4.116 2.091,1.279 4.926,1.45 6.444,1.549 -0.474,0.613 -1.015,1.253 -1.015,2.299 0,0.573 0.172,0.913 0.338,1.316 -0.369,-0.035 -0.741,-0.072 -1.079,-0.072 -3.579,0 -5.603,2.67 -5.603,5.302 0,1.552 0.708,3.274 2.163,4.522 1.923,1.584 4.217,1.857 6.041,1.857 l 6.954,0 -2.162,-1.221 -2.096,0 z"
               inkscape:connector-curvature="0" /></g><g
             transform="translate(111.417,30.6611)"
             id="g40"><path
               id="path42"
               style="fill:#ffffff;fill-opacity:1;fill-rule:nonzero;stroke:none"
               d="m 0,0 c 0.816,1.08 1.014,2.428 1.014,3.742 0,2.972 -1.416,8.64 -5.601,8.64 -1.113,0 -2.234,-0.435 -3.042,-1.146 -1.318,-1.18 -1.553,-2.664 -1.553,-4.12 0,-3.334 1.648,-8.833 5.738,-8.833 1.32,0 2.667,0.639 3.444,1.717 m -4.22,-2.73 c -5.364,0 -8.234,4.177 -8.234,7.959 0,4.418 3.608,8.2 8.74,8.2 4.961,0 8.068,-3.884 8.068,-7.962 0,-3.983 -3.071,-8.197 -8.574,-8.197"
               inkscape:connector-curvature="0" /></g><g
             transform="translate(93.459,30.6611)"
             id="g44"><path
               id="path46"
               style="fill:#ffffff;fill-opacity:1;fill-rule:nonzero;stroke:none"
               d="m 0,0 c 0.81,1.08 1.012,2.428 1.012,3.742 0,2.972 -1.42,8.64 -5.601,8.64 -1.117,0 -2.225,-0.435 -3.036,-1.146 -1.32,-1.18 -1.554,-2.664 -1.554,-4.12 0,-3.334 1.655,-8.833 5.738,-8.833 1.317,0 2.662,0.639 3.441,1.717 m -4.221,-2.73 c -5.365,0 -8.23,4.177 -8.23,7.959 0,4.418 3.609,8.2 8.739,8.2 4.958,0 8.062,-3.884 8.062,-7.962 0,-3.983 -3.067,-8.197 -8.571,-8.197"
               inkscape:connector-curvature="0" /></g><g
             transform="translate(78.8633,29.1016)"
             id="g48"><path
               id="path50"
               style="fill:#ffffff;fill-opacity:1;fill-rule:nonzero;stroke:none"
               d="m 0,0 -4.524,-1.035 c -1.833,-0.289 -3.479,-0.544 -5.222,-0.544 -8.727,0 -12.051,6.424 -12.051,11.45 0,6.14 4.711,11.831 12.778,11.831 1.707,0 3.35,-0.251 4.846,-0.658 2.371,-0.667 3.48,-1.487 4.173,-1.969 l -2.628,-2.496 -1.108,-0.248 0.79,1.26 c -1.071,1.045 -3.037,2.973 -6.77,2.973 -4.991,0 -8.757,-3.793 -8.757,-9.333 0,-5.949 4.3,-11.544 11.195,-11.544 2.026,0 3.069,0.407 4.015,0.787 l 0,5.099 -4.776,-0.257 2.532,1.361 6.703,0 L 0.377,5.888 C 0.155,5.699 0.126,5.636 0.063,5.384 0.03,5.096 0,4.18 0,3.857 L 0,0 z"
               inkscape:connector-curvature="0" /></g><g
             transform="translate(174.4102,35.8662)"
             id="g52"><path
               id="path54"
               style="fill:#ffffff;fill-opacity:1;fill-rule:nonzero;stroke:none"
               d="m 0,0 c 0,3.831 -1.997,6.753 -5.538,6.753 -2.199,0 -4.302,-1.729 -5.216,-3.235 l 0,-7.001 c 0.914,-1.51 3.017,-3.301 5.216,-3.301 C -1.997,-6.784 0,-3.837 0,0 m -10.754,-5.377 0,-8.596 -1.707,0 0,21.871 1.707,0 0,-2.49 c 1.111,1.61 3.144,2.886 5.504,2.886 4.232,0 7.084,-3.211 7.084,-8.294 0,-5.049 -2.852,-8.327 -7.084,-8.327 -2.229,0 -4.224,1.148 -5.504,2.95"
               inkscape:connector-curvature="0" /></g><path
             id="path56"
             style="fill:#ffffff;fill-opacity:1;fill-rule:nonzero;stroke:none"
             d="m 178.575,49.804 1.706,0 0,-21.871 -1.706,0 0,21.871 z"
             inkscape:connector-curvature="0" /><g
             transform="translate(199.4355,23.3076)"
             id="g58"><path
               id="path60"
               style="fill:#ffffff;fill-opacity:1;fill-rule:nonzero;stroke:none"
               d="m 0,0 c 0.364,-0.162 0.987,-0.263 1.383,-0.263 1.044,0 1.77,0.427 2.424,1.936 l 1.245,2.82 -6.725,15.964 1.904,0 L 6,6.623 l 5.712,13.834 1.931,0 L 5.441,1.144 c -0.85,-1.991 -2.189,-2.948 -4.029,-2.948 -0.552,0 -1.279,0.099 -1.706,0.23 L 0,0 z"
               inkscape:connector-curvature="0" /></g><g
             transform="translate(188.3916,29.2236)"
             id="g62"><path
               id="path64"
               style="fill:#ffffff;fill-opacity:1;fill-rule:nonzero;stroke:none"
               d="m 0,0 c 1.45,0 2.492,0.324 3.558,0.965 1.057,0.638 1.777,1.469 2.155,2.474 l 0,3.04 -4,0 c -1.528,0 -2.793,-0.337 -3.788,-1.02 -0.997,-0.68 -1.503,-1.503 -1.503,-2.46 0,-0.902 0.32,-1.625 0.957,-2.172 C -1.983,0.274 -1.111,0 0,0 M 6.058,-1.243 C 5.943,-0.694 5.857,-0.211 5.795,0.193 5.742,0.597 5.713,1.009 5.713,1.428 5.127,0.568 4.298,-0.146 3.239,-0.71 2.18,-1.276 1.173,-1.555 -0.209,-1.555 c -1.663,0 -2.953,0.409 -3.875,1.24 -0.918,0.829 -1.38,1.952 -1.38,3.373 0,1.419 0.669,2.571 2.003,3.452 1.334,0.885 3.059,1.324 5.192,1.324 l 3.982,0 0,1.968 c 0,1.133 -0.387,2.023 -1.157,2.67 -0.775,0.646 -1.861,0.973 -3.269,0.973 -1.287,0 -2.331,-0.299 -3.126,-0.881 -0.788,-0.593 -1.184,-1.33 -1.184,-2.216 l -1.748,0 -0.036,0.085 c -0.063,1.195 0.485,2.245 1.648,3.15 1.157,0.905 2.675,1.36 4.542,1.36 1.86,0 3.366,-0.448 4.502,-1.341 1.134,-0.885 1.703,-2.164 1.703,-3.836 l 0,-7.811 c 0,-0.56 0.026,-1.102 0.097,-1.631 0.072,-0.529 0.186,-1.056 0.339,-1.567 l -1.966,0 z"
               inkscape:connector-curvature="0" /></g><g
             transform="translate(62.332,71.2188)"
             id="g66"><path
               id="path68"
               style="fill:#ffffff;fill-opacity:1;fill-rule:nonzero;stroke:none"
               d="m 0,0 -1.921,-5.09 3.842,0 L 0,0 z m 3.233,-8.804 -0.785,2.065 -4.897,0 -0.784,-2.065 -2.129,0 4.193,10.677 2.337,0 4.194,-10.677 -2.129,0 z"
               inkscape:connector-curvature="0" /></g><g
             transform="translate(76.6846,62.415)"
             id="g70"><path
               id="path72"
               style="fill:#ffffff;fill-opacity:1;fill-rule:nonzero;stroke:none"
               d="m 0,0 -5.57,7.635 0,-7.635 -1.872,0 0,10.677 1.921,0 5.458,-7.396 0,7.396 1.873,0 L 1.81,0 0,0 z"
               inkscape:connector-curvature="0" /></g><g
             transform="translate(88.7959,67.7607)"
             id="g74"><path
               id="path76"
               style="fill:#ffffff;fill-opacity:1;fill-rule:nonzero;stroke:none"
               d="m 0,0 c 0,2.049 -1.28,3.682 -3.649,3.682 l -2.114,0 0,-7.379 2.098,0 C -1.345,-3.697 0,-2.032 0,0 m -7.635,-5.346 0,10.677 3.97,0 c 3.345,0 5.586,-2.209 5.586,-5.331 0,-3.152 -2.241,-5.346 -5.57,-5.346 l -3.986,0 z"
               inkscape:connector-curvature="0" /></g><g
             transform="translate(99.1963,69.7617)"
             id="g78"><path
               id="path80"
               style="fill:#ffffff;fill-opacity:1;fill-rule:nonzero;stroke:none"
               d="m 0,0 c 0,1.024 -0.769,1.681 -1.825,1.681 l -2.577,0 0,-3.394 2.577,0 C -0.769,-1.713 0,-1.04 0,0 m -0.176,-7.347 -2.353,3.986 -1.873,0 0,-3.986 -1.872,0 0,10.677 4.689,0 c 2.113,0 3.506,-1.361 3.506,-3.346 0,-1.888 -1.249,-2.929 -2.545,-3.137 l 2.625,-4.194 -2.177,0 z"
               inkscape:connector-curvature="0" /></g><g
             transform="translate(111.917,67.7451)"
             id="g82"><path
               id="path84"
               style="fill:#ffffff;fill-opacity:1;fill-rule:nonzero;stroke:none"
               d="m 0,0 c 0,2.209 -1.393,3.857 -3.537,3.857 -2.161,0 -3.538,-1.648 -3.538,-3.857 0,-2.192 1.377,-3.857 3.538,-3.857 C -1.393,-3.857 0,-2.192 0,0 m -8.996,0 c 0,3.186 2.257,5.522 5.459,5.522 3.184,0 5.458,-2.336 5.458,-5.522 0,-3.186 -2.274,-5.522 -5.458,-5.522 -3.202,0 -5.459,2.336 -5.459,5.522"
               inkscape:connector-curvature="0" /></g><path
             id="path86"
             style="fill:#ffffff;fill-opacity:1;fill-rule:nonzero;stroke:none"
             d="m 116.026,73.092 1.872,0 0,-10.677 -1.872,0 0,10.677 z"
             inkscape:connector-curvature="0" /><g
             transform="translate(128.2051,67.7607)"
             id="g88"><path
               id="path90"
               style="fill:#ffffff;fill-opacity:1;fill-rule:nonzero;stroke:none"
               d="m 0,0 c 0,2.049 -1.28,3.682 -3.649,3.682 l -2.114,0 0,-7.379 2.098,0 C -1.345,-3.697 0,-2.032 0,0 m -7.635,-5.346 0,10.677 3.97,0 c 3.345,0 5.586,-2.209 5.586,-5.331 0,-3.152 -2.241,-5.346 -5.57,-5.346 l -3.986,0 z"
               inkscape:connector-curvature="0" /></g><g
             transform="translate(141.1162,71.2188)"
             id="g92"><path
               id="path94"
               style="fill:#ffffff;fill-opacity:1;fill-rule:nonzero;stroke:none"
               d="m 0,0 -1.921,-5.09 3.842,0 L 0,0 z m 3.233,-8.804 -0.785,2.065 -4.897,0 -0.784,-2.065 -2.129,0 4.193,10.677 2.337,0 4.193,-10.677 -2.128,0 z"
               inkscape:connector-curvature="0" /></g><g
             transform="translate(154.2832,69.7461)"
             id="g96"><path
               id="path98"
               style="fill:#ffffff;fill-opacity:1;fill-rule:nonzero;stroke:none"
               d="m 0,0 c 0,1.024 -0.752,1.696 -1.809,1.696 l -2.577,0 0,-3.377 2.577,0 C -0.752,-1.681 0,-1.009 0,0 m -6.258,-7.331 0,10.677 4.706,0 c 2.24,0 3.473,-1.522 3.473,-3.346 0,-1.809 -1.248,-3.329 -3.473,-3.329 l -2.834,0 0,-4.002 -1.872,0 z"
               inkscape:connector-curvature="0" /></g><g
             transform="translate(164.4277,69.7461)"
             id="g100"><path
               id="path102"
               style="fill:#ffffff;fill-opacity:1;fill-rule:nonzero;stroke:none"
               d="m 0,0 c 0,1.024 -0.752,1.696 -1.809,1.696 l -2.577,0 0,-3.377 2.577,0 C -0.752,-1.681 0,-1.009 0,0 m -6.258,-7.331 0,10.677 4.706,0 c 2.24,0 3.473,-1.522 3.473,-3.346 0,-1.809 -1.248,-3.329 -3.473,-3.329 l -2.834,0 0,-4.002 -1.872,0 z"
               inkscape:connector-curvature="0" /></g><g
             transform="translate(179.4199,65.5527)"
             id="g104"><path
               id="path106"
               style="fill:#ffffff;fill-opacity:1;fill-rule:nonzero;stroke:none"
               d="m 0,0 c 0,0.8 -0.56,1.488 -1.616,1.488 l -3.09,0 0,-2.977 3.09,0 C -0.608,-1.489 0,-0.929 0,0 m -0.208,4.514 c 0,0.784 -0.544,1.376 -1.488,1.376 l -3.01,0 0,-2.753 3.01,0 c 0.944,0 1.488,0.56 1.488,1.377 m -6.37,-7.652 0,10.677 5.25,0 c 1.969,0 3.041,-1.217 3.041,-2.722 0,-1.328 -0.864,-2.241 -1.857,-2.449 1.153,-0.176 2.065,-1.312 2.065,-2.608 0,-1.665 -1.088,-2.898 -3.106,-2.898 l -5.393,0 z"
               inkscape:connector-curvature="0" /></g><g
             transform="translate(183.626,62.415)"
             id="g108"><path
               id="path110"
               style="fill:#ffffff;fill-opacity:1;fill-rule:nonzero;stroke:none"
               d="m 0,0 0,10.677 7.314,0 0,-1.65 -5.442,0 0,-2.753 5.331,0 0,-1.648 -5.331,0 0,-2.978 5.442,0 L 7.314,0 0,0 z"
               inkscape:connector-curvature="0" /></g><path
             id="path112"
             style="fill:#ffffff;fill-opacity:1;fill-rule:nonzero;stroke:none"
             d="m 193.257,73.092 1.872,0 0,-10.677 -1.872,0 0,10.677 z"
             inkscape:connector-curvature="0" /></g></g><g
         id="g114"><g
           id="g116"><g
             id="g122"><g
               id="g124"><path
                 id="path132"
                 style="fill:url(#linearGradient3138);stroke:none"
                 d="M 17.299,54.233 34.776,36.758 40.251,42.234 18.913,53.966 C 18.499,54.193 18.107,54.3 17.756,54.3 l 0,0 c -0.162,0 -0.315,-0.022 -0.457,-0.067"
                 inkscape:connector-curvature="0" /></g></g></g></g><g
         id="g134"><g
           id="g136"><g
             id="g142"><g
               id="g144"><path
                 id="path152"
                 style="fill:url(#linearGradient3140);stroke:none"
                 d="m 34.776,36.758 5.503,-5.503 7.283,4.005 c 1.477,0.816 1.477,2.141 0,2.954 l 0,0 -7.31,4.02 -5.476,-5.476 z"
                 inkscape:connector-curvature="0" /></g></g></g></g><g
         id="g154"><g
           id="g156"><g
             id="g162"><g
               id="g164"><path
                 id="path172"
                 style="fill:url(#linearGradient3142);stroke:none"
                 d="m 16.229,52.379 0.004,-31.284 c 0,-0.983 0.407,-1.63 1.037,-1.846 l 0,0 17.506,17.506 -17.478,17.478 c -0.649,-0.202 -1.069,-0.86 -1.069,-1.854"
                 inkscape:connector-curvature="0" /></g></g></g></g><g
         id="g174"><g
           id="g176"><g
             id="g182"><g
               id="g184"><path
                 id="path192"
                 style="fill:url(#linearGradient3144);stroke:none"
                 d="m 17.27,19.249 c 0.455,-0.155 1.024,-0.082 1.643,0.258 l 0,0 21.364,11.748 -5.501,5.5 L 17.27,19.249 z"
                 inkscape:connector-curvature="0" /></g></g></g></g></g></g></svg>