<?xml version="1.0" encoding="UTF-8" standalone="no"?> <!-- Created with Vectornator Pro for iOS (http://vectornator.io/) --><!DOCTYPE svg PUBLIC "-//W3C//DTD SVG 1.1//EN" "http://www.w3.org/Graphics/SVG/1.1/DTD/svg11.dtd">
<svg height="100%" style="fill-rule:evenodd;clip-rule:evenodd;stroke-linecap:round;stroke-linejoin:round;" xmlns:xlink="http://www.w3.org/1999/xlink" xmlns="http://www.w3.org/2000/svg" xml:space="preserve" width="100%" xmlns:vectornator="http://vectornator.io" version="1.1" viewBox="0 0 1000 1000">
<metadata>
<vectornator:setting key="RulersVisible" value="1"/>
<vectornator:setting key="OutlineMode" value="0"/>
<vectornator:setting key="SnapToEdges" value="0"/>
<vectornator:setting key="Units" value="Pixels"/>
<vectornator:setting key="DynamicGuides" value="0"/>
<vectornator:setting key="SnapToPoints" value="0"/>
<vectornator:setting key="CMYKEnabledKey" value="0"/>
<vectornator:setting key="SnapToGrid" value="0"/>
<vectornator:setting key="ShowGrid" value="1"/>
<vectornator:setting key="GridSpacing" value="50"/>
</metadata>
<defs/>
<g id="Layer 1" vectornator:layerName="Layer 1">
<path d="M0+0L1000+0L1000+1000L0+1000L0+0Z" stroke="#000000" stroke-width="1" fill="#0090ff" opacity="0" stroke-linejoin="round"/>
<g opacity="1">
<path d="M154.346+426.689L193.752+426.689L193.752+442.452C201.341+434.512+207.821+429.141+213.192+426.339C218.913+423.42+226.093+421.961+234.733+421.961C253.998+421.961+269.235+430.367+280.444+447.18C292.82+430.367+309.574+421.961+330.707+421.961C369.12+421.961+388.327+445.254+388.327+491.84L388.327+597.273L348.746+597.273L348.746+502.524C348.746+486.177+346.761+474.618+342.792+467.846C338.705+460.958+331.992+457.513+322.651+457.513C311.793+457.513+303.883+461.6+298.92+469.773C293.958+477.946+291.477+491.081+291.477+509.179L291.477+597.273L251.897+597.273L251.897+503.049C251.897+472.692+243.14+457.513+225.626+457.513C214.534+457.513+206.449+461.658+201.37+469.948C196.291+478.238+193.752+491.315+193.752+509.179L193.752+597.273L154.346+597.273L154.346+426.689Z" stroke="#0090ff" stroke-width="10" fill="#ffffff" opacity="1"/>
<path d="M539.879+303.04L539.879+426.696L539.816+426.696L539.816+446.478C524.054+430.132+506.258+421.946+486.41+421.946C463.409+421.946+444.236+430.493+428.941+447.54C413.646+464.587+406.004+485.876+406.004+511.446C406.003+537.483+413.646+559.206+428.941+576.603C444.353+593.649+463.856+602.165+487.441+602.165C506.122+602.165+523.587+594.594+539.816+579.415L539.816+597.259L540.254+597.259L539.879+598.853L579.285+598.853L579.285+597.259L579.379+597.259L579.379+533.071L585.597+526.853L641.972+598.853L693.129+598.853L613.597+499.884L687.691+428.259L634.785+428.259L579.379+483.321L579.379+426.696L579.285+426.696L579.285+303.04L539.879+303.04ZM493.754+457.509C508.115+457.509+519.795+462.601+528.785+472.759C537.775+483.15+542.254+496.326+542.254+512.321C542.254+528.317+537.775+541.524+528.785+551.915C519.795+561.956+508.004+566.978+493.41+566.978C479.749+566.978+468.4+561.775+459.41+551.384C450.653+541.109+446.285+527.793+446.285+511.446C446.285+496.151+450.795+483.307+459.785+472.915C468.892+462.64+480.21+457.509+493.754+457.509Z" stroke="#0090ff" stroke-width="10" fill="#ffffff" opacity="1"/>
<path d="M844.077+522.833L721.833+522.833C722.884+536.844+727.437+547.994+735.494+556.284C743.55+564.457+753.883+568.543+766.493+568.543C776.3+568.543+784.415+566.208+790.836+561.538C797.141+556.868+804.322+548.228+812.378+535.618L845.654+554.182C840.516+562.939+835.087+570.441+829.366+576.687C823.645+582.934+817.515+588.071+810.977+592.099C804.439+596.127+797.375+599.076+789.786+600.944C782.196+602.812+773.965+603.746+765.091+603.746C739.639+603.746+719.206+595.573+703.794+579.227C688.382+562.764+680.676+540.93+680.676+513.726C680.676+486.755+688.149+464.921+703.094+448.224C718.155+431.762+738.121+423.53+762.99+423.53C788.093+423.53+807.941+431.528+822.536+447.524C837.014+463.403+844.253+485.412+844.253+513.55L844.077+522.833ZM803.621+490.608C798.134+469.591+784.882+459.083+763.866+459.083C759.079+459.083+754.583+459.813+750.38+461.272C746.177+462.732+742.353+464.833+738.909+467.577C735.464+470.321+732.516+473.619+730.064+477.472C727.613+481.325+725.744+485.704+724.46+490.608L803.621+490.608Z" stroke="#0090ff" stroke-width="10" fill="#ffffff" opacity="1"/>
</g>
<text stroke="#ffffff" stroke-width="6" x="0" font-family="Futura-Medium" y="0" fill="#ad0023" font-size="182" vectornator:width="640.408" opacity="1" text-anchor="middle" transform="matrix(1 0 0 1 382.932 580.998)" stroke-linejoin="round" vectornator:text="admīn">
<tspan x="320.204" y="189" textLength="507.343">
admīn</tspan>
</text>
<g opacity="1">
<path d="M253.014+691.073L266.287+677.801L258.637+670.152C258.637+670.152+244.466+654.404+257.627+641.243C257.627+641.243+271.911+625.158+309.593+631.119L317.354+623.583C317.354+623.583+258.863+592.763+218.931+632.695C218.931+632.695+205.714+643.661+205.716+652.322C205.716+652.322+203.805+673.132+184.118+673.133C184.118+673.133+180.852+669.873+178.549+672.176L164.039+686.685C161.181+689.544+165.79+698.785+174.332+707.326C182.874+715.867+192.114+720.476+194.973+717.618L209.482+703.109C209.482+703.109+210.945+700.972+209.482+699.508C209.482+699.508+205.545+695.573+210.045+691.073C214.545+686.575+223.094+678.026+223.094+678.026C223.094+678.026+231.305+669.364+247.841+685.899C249.317+687.375+251.067+689.125+253.014+691.073Z" stroke="#ad0023" stroke-width="6" fill="#ffffff" opacity="1" stroke-linejoin="round"/>
<path d="M441.877+848.442C430.74+837.305+334.453+741.017+334.453+741.017C334.453+741.017+328.49+733.932+325.453+736.969L268.658+680.174L255.386+693.445C275.988+714.048+314.203+752.264+314.203+752.264C314.203+752.264+305.993+760.026+333.552+787.586C361.11+815.144+361.11+815.144+361.11+815.144L417.127+871.161C417.127+871.161+423.987+890.847+430.401+884.434C437.739+877.096+447.272+867.561+447.272+867.561C447.272+867.561+453.011+859.576+441.877+848.442Z" stroke="#ad0023" stroke-width="6" fill="#ffffff" opacity="1" stroke-linejoin="round"/>
</g>
</g>
</svg>
