<?xml version="1.0" encoding="UTF-8" standalone="no"?>
<!-- Created with Inkscape (http://www.inkscape.org/) -->

<svg
   xmlns:dc="http://purl.org/dc/elements/1.1/"
   xmlns:cc="http://creativecommons.org/ns#"
   xmlns:rdf="http://www.w3.org/1999/02/22-rdf-syntax-ns#"
   xmlns:svg="http://www.w3.org/2000/svg"
   xmlns="http://www.w3.org/2000/svg"
   xmlns:sodipodi="http://sodipodi.sourceforge.net/DTD/sodipodi-0.dtd"
   xmlns:inkscape="http://www.inkscape.org/namespaces/inkscape"
   id="svg2"
   version="1.1"
   inkscape:version="0.48.4 r9939"
   width="238.225"
   height="81.25"
   xml:space="preserve"
   sodipodi:docname="amazon-apps-store-de-black.eps"><metadata
     id="metadata8"><rdf:RDF><cc:Work
         rdf:about=""><dc:format>image/svg+xml</dc:format><dc:type
           rdf:resource="http://purl.org/dc/dcmitype/StillImage" /><dc:title></dc:title></cc:Work></rdf:RDF></metadata><defs
     id="defs6"><clipPath
       clipPathUnits="userSpaceOnUse"
       id="clipPath22"><path
         d="m 593.941,125.918 c 0,-36.8164 -29.847,-66.6719 -66.675,-66.6719 l -393.45,0 c -36.8199,0 -66.6676,29.8555 -66.6676,66.6719 l 0,289.332 c 0,0 112.1486,-19.551 263.3986,-18.441 142.016,1.039 263.394,18.441 263.394,18.441 l 0,-289.332 z"
         id="path24" /></clipPath><linearGradient
       x1="0"
       y1="0"
       x2="1"
       y2="0"
       gradientUnits="userSpaceOnUse"
       gradientTransform="matrix(-1.56e-6,-35.6006,-35.6006,1.56e-6,33.0542,41.5249)"
       spreadMethod="pad"
       id="linearGradient26"><stop
         style="stop-opacity:1;stop-color:#f79328"
         offset="0"
         id="stop28" /><stop
         style="stop-opacity:1;stop-color:#c55c19"
         offset="1"
         id="stop30" /></linearGradient></defs><sodipodi:namedview
     pagecolor="#ffffff"
     bordercolor="#666666"
     borderopacity="1"
     objecttolerance="10"
     gridtolerance="10"
     guidetolerance="10"
     inkscape:pageopacity="0"
     inkscape:pageshadow="2"
     inkscape:window-width="640"
     inkscape:window-height="480"
     id="namedview4"
     showgrid="false"
     inkscape:zoom="1.5153741"
     inkscape:cx="119.1125"
     inkscape:cy="40.625"
     inkscape:window-x="51"
     inkscape:window-y="24"
     inkscape:window-maximized="0"
     inkscape:current-layer="g10" /><g
     id="g10"
     inkscape:groupmode="layer"
     inkscape:label="ink_ext_XXXXXX"
     transform="matrix(1.25,0,0,-1.25,0,81.25)"><g
       id="g12"
       transform="scale(0.1,0.1)"><path
         d="M 1905.76,95.293 C 1905.76,42.668 1863.1,0 1810.47,0 L 95.2891,0 C 42.6641,0 0,42.668 0,95.293 L 0,554.711 C 0,607.34 42.6641,650 95.2891,650 l 1715.1809,0 c 52.63,0 95.29,-42.66 95.29,-95.289 l 0,-459.418"
         style="fill:#231f20;fill-opacity:1;fill-rule:nonzero;stroke:none"
         id="path14" /><path
         d="m 592.91,126.953 c 0,-36.8241 -29.847,-66.6717 -66.672,-66.6717 l -393.449,0 c -36.8202,0 -66.6718,29.8476 -66.6718,66.6717 l 0,393.445 c 0,36.825 29.8516,66.672 66.6718,66.672 l 393.449,0 c 36.825,0 66.672,-29.847 66.672,-66.672 l 0,-393.445"
         style="fill:#ffffff;fill-opacity:1;fill-rule:nonzero;stroke:none"
         id="path16" /><g
         id="g18"><g
           id="g20"
           clip-path="url(#clipPath22)"><path
             d="m 593.941,125.918 c 0,-36.8164 -29.847,-66.6719 -66.675,-66.6719 l -393.45,0 c -36.8199,0 -66.6676,29.8555 -66.6676,66.6719 l 0,289.332 c 0,0 112.1486,-19.551 263.3986,-18.441 142.016,1.039 263.394,18.441 263.394,18.441 l 0,-289.332"
             style="fill:url(#linearGradient26);fill-opacity:1;fill-rule:nonzero;stroke:none"
             id="path32" /></g></g><path
         d="m 133.816,586.559 c -36.4762,0 -66.1558,-29.68 -66.1558,-66.161 l 0,-393.445 c 0,-36.4842 29.6796,-66.16 66.1558,-66.16 l 393.45,0 c 36.484,0 66.164,29.6758 66.164,66.16 l 0,393.445 c 0,36.481 -29.68,66.161 -66.164,66.161 l -393.45,0 z m 393.45,-526.7934 -393.45,0 c -37.0426,0 -67.1832,30.1367 -67.1832,67.1874 l 0,393.445 c 0,37.047 30.1406,67.192 67.1832,67.192 l 393.45,0 c 37.05,0 67.187,-30.145 67.187,-67.192 l 0,-393.445 c 0,-37.0507 -30.137,-67.1874 -67.187,-67.1874"
         style="fill:#231f20;fill-opacity:1;fill-rule:nonzero;stroke:none"
         id="path34" /><path
         d="m 375.254,448.77 c -21.504,-16.27 -52.68,-24.926 -79.524,-24.926 -37.625,0 -71.5,14.261 -97.14,38.004 -2.012,1.859 -0.223,4.406 2.199,2.961 27.664,-16.504 61.867,-26.446 97.199,-26.446 23.832,0 50.035,5.075 74.141,15.559 3.633,1.582 6.684,-2.457 3.125,-5.152"
         style="fill:#231f20;fill-opacity:1;fill-rule:evenodd;stroke:none"
         id="path36" /><path
         d="m 384.199,459.242 c -2.75,3.613 -18.179,1.715 -25.113,0.863 -2.098,-0.257 -2.422,1.625 -0.531,2.985 12.308,8.867 32.48,6.305 34.824,3.34 2.359,-2.996 -0.621,-23.731 -12.156,-33.625 -1.774,-1.528 -3.457,-0.711 -2.676,1.3 2.598,6.649 8.406,21.532 5.652,25.137"
         style="fill:#231f20;fill-opacity:1;fill-rule:evenodd;stroke:none"
         id="path38" /><path
         d="m 358.551,525.719 0,8.613 c 0.004,1.309 0.965,2.184 2.129,2.184 l 37.648,0 c 1.203,0 2.168,-0.903 2.176,-2.176 l -0.008,-7.387 c -0.008,-1.238 -1.023,-2.855 -2.828,-5.426 L 378.16,492.98 c 7.238,0.168 14.903,-0.937 21.481,-4.734 1.48,-0.851 1.879,-2.117 1.996,-3.359 l 0,-9.196 c 0,-1.261 -1.356,-2.726 -2.774,-1.964 -11.59,6.222 -26.968,6.902 -39.781,-0.075 -1.312,-0.718 -2.68,0.727 -2.68,1.993 l 0,8.742 c 0,1.394 0.024,3.789 1.403,5.918 l 22.593,33.242 -19.675,0 c -1.203,0 -2.168,0.879 -2.172,2.172"
         style="fill:#231f20;fill-opacity:1;fill-rule:evenodd;stroke:none"
         id="path40" /><path
         d="m 222.234,471.914 -11.453,0 c -1.09,0.074 -1.965,0.914 -2.051,1.988 l 0.008,60.282 c 0,1.207 0.992,2.168 2.215,2.168 l 10.664,0.003 c 1.117,-0.054 2.016,-0.925 2.082,-2.023 l 0,-7.871 0.215,0 c 2.781,7.609 8.02,11.168 15.078,11.168 7.164,0 11.653,-3.559 14.86,-11.168 2.781,7.609 9.086,11.168 15.828,11.168 4.812,0 10.047,-2.031 13.254,-6.598 3.636,-5.078 2.89,-12.433 2.89,-18.902 l -0.008,-38.047 c 0,-1.199 -0.992,-2.168 -2.207,-2.168 l -11.441,0 c -1.152,0.078 -2.063,1.012 -2.063,2.164 l 0,31.961 c 0,2.535 0.211,8.879 -0.32,11.289 -0.855,4.059 -3.422,5.199 -6.734,5.199 -2.781,0 -5.668,-1.902 -6.844,-4.945 -1.18,-3.047 -1.07,-8.117 -1.07,-11.543 l 0,-31.957 c 0,-1.199 -0.992,-2.168 -2.207,-2.168 l -11.442,0 c -1.152,0.078 -2.058,1.012 -2.058,2.164 l -0.012,31.961 c 0,6.727 1.07,16.617 -7.055,16.617 -8.23,0 -7.914,-9.644 -7.914,-16.617 l -0.008,-31.957 c 0.008,-1.199 -0.984,-2.168 -2.207,-2.168"
         style="fill:#231f20;fill-opacity:1;fill-rule:evenodd;stroke:none"
         id="path42" /><path
         d="m 431.992,525.316 c -8.453,0 -8.984,-11.793 -8.984,-19.148 0,-7.359 -0.11,-23.094 8.879,-23.094 8.871,0 9.301,12.688 9.301,20.426 0,5.074 -0.215,11.164 -1.715,15.988 -1.282,4.184 -3.848,5.828 -7.481,5.828 z m -0.105,12.313 c 16.996,0 26.195,-14.973 26.195,-34 0,-18.395 -10.16,-32.984 -26.195,-32.984 -16.684,0 -25.774,14.968 -25.774,33.617 0,18.773 9.2,33.367 25.774,33.367"
         style="fill:#231f20;fill-opacity:1;fill-rule:evenodd;stroke:none"
         id="path44" /><path
         d="m 480.129,471.914 -11.414,0 c -1.149,0.078 -2.055,1.012 -2.055,2.164 l -0.019,60.309 c 0.097,1.101 1.047,1.965 2.203,1.965 l 10.625,0.003 c 0.996,-0.05 1.82,-0.75 2.035,-1.687 l 0,-9.223 0.215,0 c 3.203,8.246 7.695,12.184 15.609,12.184 5.133,0 10.156,-1.906 13.363,-7.106 2.997,-4.82 2.997,-12.941 2.997,-18.777 l 0,-37.933 c -0.129,-1.071 -1.067,-1.899 -2.196,-1.899 l -11.48,0 c -1.067,0.066 -1.914,0.867 -2.043,1.899 l 0,32.73 c 0,6.598 0.746,16.238 -7.164,16.238 -2.782,0 -5.344,-1.902 -6.629,-4.816 -1.602,-3.684 -1.817,-7.36 -1.817,-11.422 l 0,-32.461 c -0.023,-1.199 -1.011,-2.168 -2.23,-2.168"
         style="fill:#231f20;fill-opacity:1;fill-rule:evenodd;stroke:none"
         id="path46" /><path
         d="m 341.109,472.066 c -0.757,-0.699 -1.851,-0.742 -2.707,-0.273 -3.8,3.242 -4.48,4.738 -6.562,7.824 -6.289,-6.566 -10.742,-8.531 -18.887,-8.531 -9.64,0 -17.14,6.098 -17.14,18.305 0,9.535 5.031,16.015 12.21,19.195 6.215,2.797 14.899,3.305 21.54,4.066 l 0,1.528 c 0,2.797 0.21,6.101 -1.395,8.515 -1.391,2.164 -4.07,3.051 -6.43,3.051 -4.367,0 -8.254,-2.293 -9.203,-7.051 -0.199,-1.058 -0.953,-2.101 -1.988,-2.156 l -11.106,1.231 c -0.941,0.214 -1.98,0.984 -1.707,2.457 2.547,13.804 14.715,17.98 25.618,17.98 5.57,0 12.855,-1.523 17.25,-5.848 5.57,-5.339 5.035,-12.457 5.035,-20.214 l 0,-18.297 c 0,-5.508 2.23,-7.918 4.324,-10.887 0.73,-1.07 0.894,-2.34 -0.039,-3.121 -2.34,-2.008 -6.492,-5.715 -8.785,-7.797 l -0.028,0.023 z m -11.546,28.637 c 0,-4.574 0.105,-8.394 -2.141,-12.461 -1.824,-3.304 -4.719,-5.336 -7.934,-5.336 -4.39,0 -6.965,3.434 -6.965,8.516 0,10.004 8.75,11.824 17.04,11.824 l 0,-2.543"
         style="fill:#231f20;fill-opacity:1;fill-rule:evenodd;stroke:none"
         id="path48" /><path
         d="m 191.98,472.066 c -0.757,-0.699 -1.851,-0.742 -2.703,-0.273 -3.808,3.242 -4.492,4.738 -6.566,7.824 -6.289,-6.566 -10.742,-8.531 -18.887,-8.531 -9.644,0 -17.144,6.098 -17.144,18.305 0,9.535 5.035,16.015 12.215,19.195 6.21,2.797 14.894,3.305 21.539,4.066 l 0,1.528 c 0,2.797 0.211,6.101 -1.391,8.515 -1.398,2.164 -4.07,3.051 -6.438,3.051 -4.363,0 -8.25,-2.293 -9.203,-7.051 -0.199,-1.058 -0.953,-2.101 -1.988,-2.156 l -11.101,1.231 c -0.938,0.214 -1.985,0.984 -1.708,2.457 2.547,13.804 14.711,17.98 25.614,17.98 5.57,0 12.855,-1.523 17.25,-5.848 5.57,-5.339 5.039,-12.457 5.039,-20.214 l 0,-18.297 c 0,-5.508 2.226,-7.918 4.32,-10.887 0.735,-1.07 0.895,-2.34 -0.039,-3.121 -2.336,-2.008 -6.492,-5.715 -8.781,-7.797 l -0.028,0.023 z m -11.546,28.637 c 0,-4.574 0.109,-8.394 -2.145,-12.461 -1.82,-3.304 -4.715,-5.336 -7.93,-5.336 -4.39,0 -6.961,3.434 -6.961,8.516 0,10.004 8.75,11.824 17.036,11.824 l 0,-2.543"
         style="fill:#231f20;fill-opacity:1;fill-rule:evenodd;stroke:none"
         id="path50" /><path
         d="m 275.176,248.059 c 0,-51.426 -41.692,-93.125 -93.113,-93.125 -51.426,0 -93.1177,41.699 -93.1177,93.125 0,51.421 41.6917,93.109 93.1177,93.109 51.421,0 93.113,-41.688 93.113,-93.109"
         style="fill:#1f2b6a;fill-opacity:1;fill-rule:nonzero;stroke:none"
         id="path52" /><path
         d="m 187.266,283.613 -22.34,0 0,-82.793 c 0,0 -0.985,-1.632 -2.957,1.035 -0.973,1.321 -27.262,40.364 -27.262,40.364 0,0 -4.273,4.265 -10.512,2.625 -6.246,-1.641 -8.547,-5.906 -5.586,-11.172 2.954,-5.254 22.993,-52.879 48.946,-66.027 18.453,-9.332 40.406,-5.899 52.89,0 11.047,5.226 28.321,18.07 29.633,35.148 1.313,17.09 -0.027,32.195 -0.027,32.195 l -11.629,0 0,-20.691 -7.465,0 0,30.223 -13.144,0 0,-24.707 -7.836,0 0,32.257 -14.786,0 0,-30.617 -7.183,0 -0.742,62.16"
         style="fill:#ffffff;fill-opacity:1;fill-rule:nonzero;stroke:none"
         id="path54" /><path
         d="m 125.508,272.109 18.7227,0 0,11.5039 -18.7227,0 0,-11.5039 z"
         style="fill:#ffffff;fill-opacity:1;fill-rule:nonzero;stroke:none"
         id="path56" /><path
         d="m 209.105,272.109 18.7266,0 0,11.5039 -18.7266,0 0,-11.5039 z"
         style="fill:#ffffff;fill-opacity:1;fill-rule:nonzero;stroke:none"
         id="path58" /><path
         d="m 166.238,303.32 19.3828,0 0,21.6797 -19.3828,0 0,-21.6797 z"
         style="fill:#ffffff;fill-opacity:1;fill-rule:nonzero;stroke:none"
         id="path60" /><path
         d="m 149.488,292.813 6.899,6.894 -12.77,13.141 -7.719,-6.903 13.59,-13.132"
         style="fill:#ffffff;fill-opacity:1;fill-rule:nonzero;stroke:none"
         id="path62" /><path
         d="m 204.73,294.863 -5.867,7.93 13.797,11.086 5.66,-7.934 -13.59,-11.082"
         style="fill:#ffffff;fill-opacity:1;fill-rule:nonzero;stroke:none"
         id="path64" /><path
         d="m 339.063,251.746 -1.536,0 c -14.777,0 -23.562,-3.504 -23.562,-15.469 0,-7.5 4.324,-12.593 11.015,-12.593 10.317,0 14.083,8.765 14.083,23.433 l 0,4.629 z m -34.02,37.16 c 4.879,2.547 11.711,6.055 22.727,6.055 22.304,0 27.464,-12.434 27.464,-33.008 l 0,-35.879 c 0,-5.906 -0.472,-11.328 -0.054,-14.511 l -15.614,0 c -0.351,3.757 0.051,7.167 0.051,11.164 l -0.277,0 c -4.32,-6.704 -9.762,-12.446 -20.078,-12.446 -11.153,0 -21.469,8.774 -21.469,24.082 0,22.325 15.895,27.91 37.781,27.91 l 3.489,0 0,3.032 c 0,8.133 -3.489,15.625 -13.383,15.625 -8.649,0 -16.317,-4.785 -19.66,-7.969 l -0.977,15.945"
         style="fill:#ffffff;fill-opacity:1;fill-rule:nonzero;stroke:none"
         id="path66" /><path
         d="m 337.527,251.23 c -16.156,0 -23.047,-4.472 -23.047,-14.953 0,-7.339 4.125,-12.089 10.5,-12.089 9.258,0 13.567,7.289 13.567,22.929 l 0,4.113 -1.02,0 z M 324.98,223.164 c -6.894,0 -11.527,5.274 -11.527,13.113 0,11.203 7.199,15.981 24.074,15.981 l 1.536,0 c 0.285,0 0.511,-0.227 0.511,-0.512 l 0,-4.629 c 0,-16.347 -4.636,-23.953 -14.594,-23.953 z m 10.594,38.594 c -25.769,0 -37.261,-8.445 -37.261,-27.395 0,-15.468 10.539,-23.57 20.949,-23.57 10.343,0 15.558,5.867 19.644,12.203 0.098,0.149 0.258,0.234 0.434,0.234 l 0.277,0 c 0.285,0 0.516,-0.222 0.516,-0.503 0,-1.438 -0.051,-2.805 -0.106,-4.114 -0.082,-2.226 -0.16,-4.328 0.012,-6.543 l 14.566,0 c -0.187,2 -0.101,4.668 -0.011,7.715 0.058,2.012 0.125,4.094 0.125,6.289 l 0,35.879 c 0,19.512 -4.582,32.5 -26.949,32.5 -10.778,0 -17.625,-3.457 -22.196,-5.848 l 0.895,-14.55 c 3.551,3.035 10.828,7.39 19.211,7.39 8.832,0 13.894,-5.879 13.894,-16.14 l 0,-3.032 c 0,-0.281 -0.226,-0.515 -0.511,-0.515 l -3.489,0 z m -16.312,-51.992 c -10.922,0 -21.981,8.449 -21.981,24.597 0,25.2 20.461,28.418 38.293,28.418 l 2.973,0 0,2.524 c 0,4.539 -1.25,15.117 -12.867,15.117 -8.754,0 -16.25,-4.934 -19.301,-7.832 -0.149,-0.149 -0.363,-0.18 -0.551,-0.11 -0.183,0.071 -0.308,0.247 -0.32,0.45 l -0.977,15.949 c -0.015,0.191 0.098,0.391 0.274,0.484 4.66,2.434 11.699,6.117 22.965,6.117 23.222,0 27.976,-13.402 27.976,-33.527 l 0,-35.879 c 0,-2.207 -0.062,-4.297 -0.125,-6.316 -0.101,-3.313 -0.187,-6.164 0.067,-8.125 0.019,-0.156 -0.024,-0.305 -0.122,-0.41 -0.097,-0.11 -0.238,-0.176 -0.386,-0.176 l -15.614,0 c -0.265,0 -0.488,0.203 -0.511,0.469 -0.231,2.449 -0.145,4.722 -0.051,7.136 0.035,0.899 0.066,1.817 0.09,2.766 -3.996,-5.93 -9.563,-11.652 -19.832,-11.652"
         style="fill:#ffffff;fill-opacity:1;fill-rule:nonzero;stroke:none"
         id="path68" /><path
         d="m 402.219,226.855 c 9.617,0 15.015,8.625 15.015,25.047 0,18.977 -4.699,28.547 -14.738,28.547 -10.183,0 -13.664,-11.562 -13.664,-27.031 0,-15.957 3.902,-26.563 13.387,-26.563 z m -30.676,52.801 c 0,5.903 -0.043,10.41 -0.043,13.891 l 15.133,-0.039 c 0.14,-2.57 0.055,-2.883 0.055,-8.457 l 0.417,0 c 2.79,7.012 8.973,9.91 20.125,9.91 17.848,0 26.266,-19.453 26.266,-42.258 0,-26.797 -10.371,-40.359 -25.84,-40.359 -10.32,0 -16.039,1.551 -18.547,7.929 l -0.277,0 0,-39.043 -17.289,0 0,98.426"
         style="fill:#ffffff;fill-opacity:1;fill-rule:nonzero;stroke:none"
         id="path70" /><path
         d="m 402.496,279.941 c -8.726,0 -13.148,-8.925 -13.148,-26.523 0,-11.887 2.23,-26.047 12.871,-26.047 9.351,0 14.504,8.715 14.504,24.531 0,18.868 -4.653,28.039 -14.227,28.039 z m -0.277,-53.601 c -9.094,0 -13.903,9.363 -13.903,27.078 0,18.281 4.77,27.551 14.18,27.551 10.27,0 15.258,-9.504 15.258,-29.067 0,-16.48 -5.52,-25.562 -15.535,-25.562 z m -30.156,-44.602 16.253,0 0,38.535 c 0,0.286 0.231,0.52 0.516,0.52 l 0.277,0 c 0.211,0 0.403,-0.141 0.481,-0.332 2.207,-5.617 6.933,-7.609 18.066,-7.609 16.094,0 25.328,14.519 25.328,39.851 0,19.262 -6.746,41.75 -25.754,41.75 -11.097,0 -16.976,-2.871 -19.648,-9.598 -0.078,-0.199 -0.269,-0.324 -0.477,-0.324 l -0.417,0 c -0.286,0 -0.516,0.235 -0.516,0.52 0,1.902 0.012,3.191 0.019,4.179 0.008,1.676 0.02,2.418 -0.046,3.766 l -14.133,0.039 c 0,-1.387 0.008,-2.918 0.019,-4.629 0.012,-2.515 0.032,-5.41 0.032,-8.75 l 0,-97.918 z m 16.769,-1.023 -17.289,0 c -0.281,0 -0.512,0.23 -0.512,0.515 l 0,98.426 c 0,3.332 -0.015,6.235 -0.031,8.742 -0.008,1.934 -0.02,3.633 -0.02,5.149 0,0.137 0.055,0.269 0.153,0.371 0.097,0.086 0.23,0.145 0.367,0.145 l 0,0 15.137,-0.04 c 0.273,0 0.496,-0.214 0.511,-0.488 0.086,-1.711 0.086,-2.422 0.071,-4.316 0,-0.696 -0.012,-1.551 -0.016,-2.676 3.07,6.25 9.164,8.937 20.027,8.937 16.27,0 26.778,-16.789 26.778,-42.777 0,-25.984 -9.606,-40.879 -26.352,-40.879 -9.199,0 -15.285,1.145 -18.308,6.723 l 0,-37.317 c 0,-0.285 -0.231,-0.515 -0.516,-0.515"
         style="fill:#ffffff;fill-opacity:1;fill-rule:nonzero;stroke:none"
         id="path72" /><path
         d="m 517.652,233.586 c 2.907,-1.242 10.313,-6.301 18.735,-6.301 6.539,0 11.621,1.707 11.621,7.903 0,3.093 -1.449,6.035 -7.988,10.066 l -10.493,6.699 c -7.554,4.805 -12.746,8.289 -12.746,19.375 0,12.793 10.02,23.633 25.852,23.633 9.59,0 16.992,-2.625 18.738,-3.25 l -1.019,-14.863 c -4.5,1.851 -9.293,3.562 -15.832,3.562 -7.258,0 -10.309,-2.949 -10.309,-7.742 0,-4.34 2.184,-6.02 7.41,-9.582 l 12.418,-5.938 c 9.77,-5.722 12.426,-13.679 12.426,-20.878 0,-14.715 -10.59,-24.571 -26.856,-24.571 -9.296,0 -19.05,3.352 -22.828,4.903 l 0.871,16.984"
         style="fill:#ffffff;fill-opacity:1;fill-rule:nonzero;stroke:none"
         id="path74" /><path
         d="m 517.313,216.941 c 2.628,-1.05 12.523,-4.734 22.296,-4.734 16,0 26.344,9.441 26.344,24.063 0,8.828 -4.098,15.703 -12.18,20.441 l -12.371,5.906 c -5.367,3.653 -7.707,5.442 -7.707,10.051 0,3.758 1.879,8.25 10.825,8.25 6.414,0 11.128,-1.602 15.367,-3.328 l 0.941,13.765 c -7.348,2.551 -13.933,3.098 -18.195,3.098 -14.684,0 -25.336,-9.726 -25.336,-23.125 0,-10.996 5.242,-14.324 12.508,-18.933 l 10.492,-6.711 c 5.84,-3.594 8.223,-6.641 8.223,-10.496 0,-5.668 -3.969,-8.411 -12.133,-8.411 -6.824,0 -12.981,3.243 -16.657,5.188 -0.593,0.308 -1.136,0.594 -1.605,0.828 l -0.812,-15.852 z m 22.296,-5.757 c -10.453,0 -21.011,4.109 -23.023,4.937 -0.199,0.09 -0.324,0.285 -0.316,0.5 l 0.871,16.984 c 0.007,0.165 0.093,0.321 0.238,0.411 0.141,0.086 0.316,0.105 0.473,0.039 0.617,-0.266 1.425,-0.688 2.359,-1.184 3.594,-1.894 9.602,-5.066 16.176,-5.066 7.578,0 11.101,2.34 11.101,7.383 0,2.91 -1.312,5.664 -7.738,9.625 l -10.504,6.71 c -7.25,4.61 -12.976,8.25 -12.976,19.805 0,13.992 11.085,24.152 26.363,24.152 4.414,0 11.273,-0.57 18.91,-3.285 0.215,-0.078 0.355,-0.293 0.344,-0.515 l -1.024,-14.871 c -0.008,-0.168 -0.101,-0.317 -0.238,-0.403 -0.141,-0.09 -0.316,-0.097 -0.469,-0.039 -4.316,1.785 -9.078,3.528 -15.636,3.528 -6.59,0 -9.793,-2.368 -9.793,-7.227 0,-4.094 2.07,-5.676 7.187,-9.16 l 12.344,-5.891 c 8.453,-4.949 12.719,-12.129 12.719,-21.347 0,-15 -10.997,-25.086 -27.368,-25.086"
         style="fill:#ffffff;fill-opacity:1;fill-rule:nonzero;stroke:none"
         id="path76" /><path
         d="m 476.5,226.855 c 9.617,0 15.023,8.625 15.023,25.047 0,18.977 -4.707,28.547 -14.746,28.547 -10.175,0 -13.664,-11.562 -13.664,-27.031 0,-15.957 3.903,-26.563 13.387,-26.563 z m -30.676,52.801 c 0,5.903 -0.043,10.41 -0.043,13.891 l 15.137,-0.039 c 0.137,-2.57 0.055,-2.883 0.055,-8.457 l 0.414,0 c 2.793,7.012 8.98,9.91 20.129,9.91 17.843,0 26.261,-19.453 26.261,-42.258 0,-26.797 -10.367,-40.359 -25.839,-40.359 -10.317,0 -16.036,1.551 -18.543,7.929 l -0.282,0 0,-39.043 -17.289,0 0,98.426"
         style="fill:#ffffff;fill-opacity:1;fill-rule:nonzero;stroke:none"
         id="path78" /><path
         d="m 476.777,279.941 c -8.726,0 -13.144,-8.925 -13.144,-26.523 0,-11.887 2.226,-26.047 12.867,-26.047 9.355,0 14.508,8.715 14.508,24.531 0,18.868 -4.656,28.039 -14.231,28.039 z M 476.5,226.34 c -9.094,0 -13.902,9.363 -13.902,27.078 0,18.281 4.769,27.551 14.179,27.551 10.27,0 15.258,-9.504 15.258,-29.067 0,-16.48 -5.515,-25.562 -15.535,-25.562 z m -30.156,-44.602 16.254,0 0,38.535 c 0,0.286 0.234,0.52 0.515,0.52 l 0.282,0 c 0.21,0 0.398,-0.141 0.476,-0.332 2.207,-5.617 6.942,-7.609 18.067,-7.609 16.093,0 25.328,14.519 25.328,39.851 0,19.262 -6.743,41.75 -25.75,41.75 -11.102,0 -16.973,-2.871 -19.653,-9.598 -0.078,-0.199 -0.261,-0.324 -0.476,-0.324 l -0.414,0 c -0.285,0 -0.512,0.235 -0.512,0.52 0,1.902 0.008,3.191 0.012,4.179 0.015,1.676 0.019,2.418 -0.043,3.766 l -14.129,0.039 c 0,-1.387 0.008,-2.918 0.012,-4.629 0.015,-2.515 0.031,-5.41 0.031,-8.75 l 0,-97.918 z m 16.769,-1.023 -17.289,0 c -0.281,0 -0.511,0.23 -0.511,0.515 l 0,98.426 c 0,3.332 -0.016,6.235 -0.032,8.742 -0.008,1.934 -0.011,3.633 -0.011,5.149 0,0.137 0.05,0.269 0.152,0.371 0.09,0.086 0.223,0.145 0.359,0.145 l 0,0 15.137,-0.04 c 0.273,0 0.5,-0.214 0.512,-0.488 0.093,-1.711 0.09,-2.422 0.074,-4.316 -0.004,-0.696 -0.016,-1.551 -0.016,-2.676 3.075,6.25 9.164,8.937 20.028,8.937 16.265,0 26.781,-16.789 26.781,-42.777 0,-25.984 -9.609,-40.879 -26.359,-40.879 -9.2,0 -15.282,1.145 -18.305,6.723 l 0,-37.317 c 0,-0.285 -0.235,-0.515 -0.52,-0.515"
         style="fill:#ffffff;fill-opacity:1;fill-rule:nonzero;stroke:none"
         id="path80" /><path
         d="M 1348.51,127.996 C 1289.46,84.4336 1203.86,61.25 1130.15,61.25 c -103.3,0 -196.326,38.1836 -266.732,101.746 -5.523,4.992 -0.59,11.817 6.047,7.949 75.957,-44.199 169.885,-70.808 266.885,-70.808 65.45,0 137.38,13.586 203.57,41.64 9.98,4.239 18.35,-6.574 8.59,-13.781"
         style="fill:#f68c14;fill-opacity:1;fill-rule:evenodd;stroke:none"
         id="path82" /><path
         d="m 1373.08,156.047 c -7.56,9.676 -49.93,4.59 -68.96,2.305 -5.77,-0.696 -6.66,4.343 -1.46,7.996 33.8,23.73 89.18,16.882 95.61,8.933 6.49,-8.015 -1.7,-63.543 -33.38,-90.0388 -4.86,-4.082 -9.5,-1.9024 -7.34,3.4883 7.13,17.7855 23.08,57.6485 15.53,67.3165"
         style="fill:#f68c14;fill-opacity:1;fill-rule:evenodd;stroke:none"
         id="path84" /><path
         d="m 1305.47,334.039 0,23.07 c 0.01,3.512 2.66,5.844 5.84,5.84 l 103.38,0.016 c 3.31,0 5.96,-2.414 5.96,-5.832 l 0,-19.785 c -0.02,-3.321 -2.82,-7.657 -7.79,-14.512 l -53.54,-76.469 c 19.87,0.469 40.9,-2.512 58.97,-12.656 4.06,-2.285 5.16,-5.684 5.47,-9.004 l 0,-24.609 c 0,-3.399 -3.7,-7.325 -7.6,-5.285 -31.82,16.671 -74.05,18.507 -109.24,-0.184 -3.59,-1.926 -7.35,1.941 -7.35,5.332 l 0,23.406 c 0,3.742 0.07,10.141 3.84,15.844 l 62.05,89.012 -54.02,0.007 c -3.31,0 -5.95,2.368 -5.97,5.809"
         style="fill:#ffffff;fill-opacity:1;fill-rule:evenodd;stroke:none"
         id="path86" /><path
         d="m 928.352,189.973 -31.45,0 c -2.996,0.195 -5.386,2.437 -5.625,5.308 l 0.024,161.418 c 0,3.246 2.715,5.821 6.062,5.821 l 29.285,0.007 c 3.071,-0.16 5.536,-2.472 5.731,-5.418 l 0,-21.074 0.586,0 c 7.637,20.379 22.015,29.895 41.39,29.895 19.668,0 32.005,-9.516 40.815,-29.895 7.63,20.379 24.95,29.895 43.45,29.895 13.22,0 27.6,-5.442 36.4,-17.668 9.98,-13.578 7.93,-33.289 7.93,-50.617 l -0.02,-101.864 c 0,-3.23 -2.72,-5.808 -6.06,-5.808 l -31.42,0 c -3.16,0.195 -5.66,2.703 -5.66,5.808 l 0,85.559 c 0,6.805 0.59,23.789 -0.88,30.238 -2.35,10.871 -9.39,13.926 -18.49,13.926 -7.64,0 -15.57,-5.098 -18.79,-13.246 -3.23,-8.164 -2.94,-21.731 -2.94,-30.918 l 0,-85.559 c 0,-3.23 -2.71,-5.808 -6.06,-5.808 l -31.419,0 c -3.152,0.195 -5.652,2.703 -5.652,5.808 l -0.024,85.559 c 0,18.008 2.934,44.512 -19.379,44.512 -22.609,0 -21.722,-25.825 -21.722,-44.512 l -0.016,-85.559 c 0,-3.23 -2.719,-5.808 -6.066,-5.808"
         style="fill:#ffffff;fill-opacity:1;fill-rule:evenodd;stroke:none"
         id="path88" /><path
         d="m 1509.94,332.98 c -23.19,0 -24.66,-31.593 -24.66,-51.3 0,-19.7 -0.29,-61.809 24.37,-61.809 24.37,0 25.55,33.957 25.55,54.68 0,13.594 -0.59,29.89 -4.7,42.804 -3.53,11.204 -10.58,15.625 -20.56,15.625 z m -0.29,32.95 c 46.69,0 71.93,-40.078 71.93,-91.035 0,-49.258 -27.88,-88.332 -71.93,-88.332 -45.8,0 -70.75,40.097 -70.75,90.019 0,50.281 25.24,89.348 70.75,89.348"
         style="fill:#ffffff;fill-opacity:1;fill-rule:evenodd;stroke:none"
         id="path90" /><path
         d="m 1642.12,189.973 -31.34,0 c -3.15,0.195 -5.64,2.703 -5.64,5.808 l -0.05,161.469 c 0.27,2.961 2.87,5.27 6.04,5.27 l 29.18,0.007 c 2.74,-0.14 5.01,-2.015 5.59,-4.519 l 0,-24.688 0.59,0 c 8.8,22.078 21.14,32.61 42.86,32.61 14.09,0 27.89,-5.102 36.69,-19.032 8.23,-12.914 8.23,-34.64 8.23,-50.265 l 0,-101.574 c -0.35,-2.871 -2.92,-5.086 -6.02,-5.086 l -31.53,0 c -2.92,0.195 -5.26,2.324 -5.62,5.086 l 0,87.636 c 0,17.664 2.07,43.481 -19.66,43.481 -7.64,0 -14.69,-5.09 -18.2,-12.906 -4.4,-9.84 -5,-19.696 -5,-30.575 l 0,-86.914 c -0.05,-3.23 -2.77,-5.808 -6.12,-5.808"
         style="fill:#ffffff;fill-opacity:1;fill-rule:evenodd;stroke:none"
         id="path92" /><path
         d="m 1254.77,190.383 c -2.09,-1.875 -5.09,-1.992 -7.44,-0.742 -10.45,8.687 -12.32,12.695 -18.03,20.957 -17.27,-17.59 -29.5,-22.864 -51.86,-22.864 -26.47,0 -47.08,16.36 -47.08,49.036 0,25.515 13.83,42.886 33.55,51.394 17.07,7.488 40.9,8.848 59.15,10.906 l 0,4.075 c 0,7.492 0.57,16.335 -3.83,22.8 -3.83,5.801 -11.18,8.176 -17.66,8.176 -11.99,0 -22.65,-6.141 -25.28,-18.891 -0.55,-2.824 -2.61,-5.625 -5.46,-5.777 l -30.49,3.301 c -2.58,0.582 -5.43,2.652 -4.69,6.578 7.01,36.981 40.4,48.156 70.34,48.156 15.29,0 35.3,-4.086 47.36,-15.668 15.31,-14.3 13.83,-33.363 13.83,-54.125 l 0,-49.004 c 0,-14.726 6.13,-21.203 11.87,-29.16 2.01,-2.851 2.46,-6.25 -0.1,-8.34 -6.42,-5.371 -17.84,-15.3 -24.12,-20.886 l -0.06,0.078 z m -31.71,76.68 c 0,-12.258 0.29,-22.461 -5.89,-33.372 -5.01,-8.847 -12.95,-14.296 -21.78,-14.296 -12.06,0 -19.12,9.199 -19.12,22.812 0,26.797 24.02,31.66 46.79,31.66 l 0,-6.804"
         style="fill:#ffffff;fill-opacity:1;fill-rule:evenodd;stroke:none"
         id="path94" /><path
         d="m 842.449,190.383 c -2.078,-1.875 -5.086,-1.992 -7.426,-0.742 -10.449,8.687 -12.324,12.695 -18.035,20.957 -17.261,-17.59 -29.492,-22.864 -51.847,-22.864 -26.489,0 -47.075,16.36 -47.075,49.036 0,25.515 13.829,42.886 33.536,51.394 17.066,7.488 40.898,8.848 59.14,10.906 l 0,4.075 c 0,7.492 0.59,16.335 -3.816,22.8 -3.836,5.801 -11.188,8.176 -17.664,8.176 -11.992,0 -22.664,-6.141 -25.274,-18.891 -0.55,-2.824 -2.609,-5.625 -5.468,-5.777 l -30.477,3.301 c -2.582,0.582 -5.445,2.652 -4.699,6.578 7.004,36.981 40.402,48.156 70.332,48.156 15.301,0 35.308,-4.086 47.379,-15.668 15.293,-14.3 13.816,-33.363 13.816,-54.125 l 0,-49.004 c 0,-14.726 6.129,-21.203 11.875,-29.16 2.008,-2.851 2.457,-6.25 -0.105,-8.34 -6.422,-5.371 -17.836,-15.3 -24.121,-20.886 l -0.071,0.078 z m -31.707,76.68 c 0,-12.258 0.293,-22.461 -5.887,-33.372 -4.992,-8.847 -12.941,-14.296 -21.773,-14.296 -12.059,0 -19.129,9.199 -19.129,22.812 0,26.797 24.035,31.66 46.789,31.66 l 0,-6.804"
         style="fill:#ffffff;fill-opacity:1;fill-rule:evenodd;stroke:none"
         id="path96" /><path
         d="m 793.223,532.109 0,-10.582 -52.625,0 0,-30.011 49.054,0 0,-10.582 -49.054,0 0,-32.664 53.023,0 0,-10.579 -65.59,0 0,94.418 65.192,0"
         style="fill:#ffffff;fill-opacity:1;fill-rule:nonzero;stroke:none"
         id="path98" /><path
         d="m 816.5,506.059 0,-14.414 0.262,0 c 2.73,5.55 6.086,9.656 10.051,12.3 3.968,2.641 9,3.875 15.078,3.696 l 0,-11.899 c -4.504,0 -8.336,-0.621 -11.508,-1.851 -3.172,-1.235 -5.735,-3.039 -7.668,-5.422 -1.945,-2.375 -3.356,-5.266 -4.231,-8.66 -0.882,-3.391 -1.32,-7.293 -1.32,-11.704 l 0,-30.414 -11.246,0 0,68.368 10.582,0"
         style="fill:#ffffff;fill-opacity:1;fill-rule:nonzero;stroke:none"
         id="path100" /><path
         d="m 860.93,532.109 0,-36.097 0.261,0 c 0.883,2.113 2.114,3.898 3.707,5.351 1.586,1.453 3.372,2.645 5.356,3.575 1.976,0.921 4.055,1.605 6.211,2.042 2.156,0.446 4.254,0.661 6.285,0.661 4.496,0 8.234,-0.614 11.234,-1.848 2.996,-1.23 5.426,-2.957 7.278,-5.156 1.851,-2.203 3.152,-4.824 3.898,-7.871 0.746,-3.039 1.125,-6.411 1.125,-10.114 l 0,-44.961 -11.234,0 0,46.286 c 0,4.23 -1.238,7.582 -3.711,10.046 -2.461,2.469 -5.86,3.704 -10.18,3.704 -3.441,0 -6.414,-0.532 -8.93,-1.59 -2.507,-1.047 -4.601,-2.559 -6.277,-4.492 -1.676,-1.942 -2.933,-4.211 -3.765,-6.809 -0.84,-2.606 -1.258,-5.445 -1.258,-8.527 l 0,-38.618 -11.242,0 0,94.418 11.242,0"
         style="fill:#ffffff;fill-opacity:1;fill-rule:nonzero;stroke:none"
         id="path102" /><path
         d="m 968.035,529.727 0,-13.75 -11.902,0 0,13.75 11.902,0 z m -24.855,0 0,-13.75 -11.903,0 0,13.75 11.903,0 z m 16.129,-59.043 c -2.278,-0.485 -4.692,-0.883 -7.2,-1.188 -2.515,-0.312 -5.054,-0.664 -7.605,-1.062 -2.563,-0.391 -4.852,-1.036 -6.875,-1.914 -2.031,-0.879 -3.688,-2.133 -4.961,-3.77 -1.281,-1.633 -1.914,-3.855 -1.914,-6.68 0,-1.847 0.375,-3.414 1.121,-4.687 0.742,-1.285 1.719,-2.317 2.91,-3.113 1.188,-0.79 2.598,-1.368 4.231,-1.715 1.629,-0.36 3.285,-0.532 4.961,-0.532 3.703,0 6.875,0.508 9.519,1.52 2.637,1.008 4.805,2.285 6.477,3.84 1.675,1.539 2.91,3.219 3.699,5.019 0.793,1.805 1.191,3.504 1.191,5.098 l 0,11.496 c -1.406,-1.055 -3.261,-1.828 -5.554,-2.312 z m 15.73,-34.446 c -2.898,0 -5.215,0.817 -6.941,2.446 -1.711,1.629 -2.571,4.296 -2.571,8 -3.086,-3.704 -6.679,-6.371 -10.781,-8 -4.094,-1.629 -8.523,-2.446 -13.285,-2.446 -3.086,0 -5.996,0.328 -8.727,0.989 -2.734,0.66 -5.14,1.765 -7.207,3.308 -2.07,1.539 -3.707,3.528 -4.898,5.953 -1.188,2.422 -1.781,5.352 -1.781,8.793 0,3.875 0.66,7.047 1.98,9.52 1.328,2.461 3.063,4.472 5.231,6.015 2.156,1.539 4.625,2.707 7.402,3.504 2.773,0.793 5.621,1.461 8.527,1.989 3.078,0.609 6.016,1.074 8.797,1.386 2.77,0.309 5.223,0.75 7.34,1.321 2.109,0.574 3.789,1.406 5.02,2.511 1.23,1.106 1.855,2.711 1.855,4.828 0,2.469 -0.457,4.45 -1.387,5.95 -0.925,1.5 -2.121,2.652 -3.574,3.437 -1.453,0.789 -3.098,1.324 -4.894,1.586 -1.805,0.266 -3.586,0.399 -5.356,0.399 -4.762,0 -8.73,-0.907 -11.894,-2.707 -3.176,-1.805 -4.903,-5.231 -5.161,-10.25 l -11.242,0 c 0.18,4.23 1.059,7.804 2.645,10.714 1.586,2.907 3.707,5.262 6.347,7.067 2.641,1.808 5.688,3.109 9.125,3.902 3.438,0.793 7.051,1.188 10.84,1.188 3.086,0 6.153,-0.215 9.199,-0.661 3.04,-0.437 5.79,-1.339 8.262,-2.703 2.473,-1.371 4.453,-3.293 5.945,-5.757 1.497,-2.469 2.25,-5.684 2.25,-9.653 l 0,-35.172 c 0,-2.648 0.157,-4.586 0.465,-5.82 0.317,-1.234 1.34,-1.852 3.11,-1.852 0.965,0 2.105,0.215 3.445,0.661 l 0,-8.723 c -1.941,-1.145 -4.641,-1.723 -8.086,-1.723"
         style="fill:#ffffff;fill-opacity:1;fill-rule:nonzero;stroke:none"
         id="path104" /><path
         d="m 993.555,437.691 11.2461,0 0,94.418 -11.2461,0 0,-94.418 z"
         style="fill:#ffffff;fill-opacity:1;fill-rule:nonzero;stroke:none"
         id="path106" /><path
         d="m 1050.82,506.059 0,-9.922 -13.61,0 0,-42.442 c 0,-1.328 0.09,-2.382 0.31,-3.175 0.23,-0.797 0.65,-1.411 1.26,-1.852 0.61,-0.441 1.48,-0.73 2.59,-0.859 1.09,-0.133 2.54,-0.196 4.29,-0.196 l 5.16,0 0,-9.922 -8.59,0 c -2.91,0 -5.41,0.196 -7.48,0.594 -2.07,0.399 -3.75,1.129 -5.03,2.18 -1.28,1.062 -2.23,2.558 -2.84,4.5 -0.61,1.937 -0.92,4.5 -0.92,7.672 l 0,43.5 -11.63,0 0,9.922 11.63,0 0,20.5 11.25,0 0,-20.5 13.61,0"
         style="fill:#ffffff;fill-opacity:1;fill-rule:nonzero;stroke:none"
         id="path108" /><path
         d="m 1063.24,437.691 11.2422,0 0,94.418 -11.2422,0 0,-94.418 z"
         style="fill:#ffffff;fill-opacity:1;fill-rule:nonzero;stroke:none"
         id="path110" /><path
         d="m 1103.17,506.059 0,-68.368 -11.24,0 0,68.368 11.24,0 z m -11.24,12.3 0,13.75 11.24,0 0,-13.75 -11.24,0"
         style="fill:#ffffff;fill-opacity:1;fill-rule:nonzero;stroke:none"
         id="path112" /><path
         d="m 1160.83,494.16 c -2.82,2.371 -6.61,3.567 -11.37,3.567 -4.06,0 -7.45,-0.75 -10.18,-2.243 -2.74,-1.504 -4.92,-3.488 -6.56,-5.957 -1.62,-2.464 -2.79,-5.312 -3.49,-8.527 -0.7,-3.219 -1.06,-6.547 -1.06,-9.984 0,-3.172 0.37,-6.254 1.13,-9.258 0.75,-2.996 1.91,-5.668 3.49,-7.996 1.59,-2.34 3.66,-4.211 6.21,-5.625 2.56,-1.414 5.62,-2.114 9.13,-2.114 5.57,0 9.91,1.457 13.02,4.364 3.14,2.914 5.05,7.008 5.76,12.301 l 11.52,0 c -1.24,-8.465 -4.39,-14.993 -9.47,-19.575 -5.05,-4.582 -11.97,-6.875 -20.69,-6.875 -5.2,0 -9.8,0.836 -13.82,2.512 -4.02,1.676 -7.37,4.055 -10.06,7.141 -2.67,3.086 -4.7,6.765 -6.07,11.043 -1.38,4.273 -2.04,8.968 -2.04,14.082 0,5.105 0.64,9.898 1.97,14.343 1.32,4.454 3.33,8.336 6.02,11.637 2.68,3.309 6.06,5.91 10.11,7.809 4.07,1.89 8.76,2.836 14.16,2.836 3.87,0 7.5,-0.457 10.9,-1.379 3.39,-0.93 6.4,-2.36 8.99,-4.305 2.61,-1.937 4.73,-4.383 6.41,-7.34 1.67,-2.953 2.75,-6.453 3.18,-10.512 l -11.62,0 c -0.91,4.325 -2.75,7.672 -5.57,10.055"
         style="fill:#ffffff;fill-opacity:1;fill-rule:nonzero;stroke:none"
         id="path114" /><path
         d="m 1201.56,532.109 0,-36.097 0.27,0 c 0.87,2.113 2.12,3.898 3.71,5.351 1.57,1.453 3.37,2.645 5.34,3.575 1.98,0.921 4.05,1.605 6.22,2.042 2.16,0.446 4.25,0.661 6.29,0.661 4.49,0 8.23,-0.614 11.23,-1.848 2.99,-1.23 5.42,-2.957 7.26,-5.156 1.87,-2.203 3.17,-4.824 3.91,-7.871 0.75,-3.039 1.12,-6.411 1.12,-10.114 l 0,-44.961 -11.23,0 0,46.286 c 0,4.23 -1.23,7.582 -3.71,10.046 -2.46,2.469 -5.86,3.704 -10.18,3.704 -3.43,0 -6.41,-0.532 -8.93,-1.59 -2.51,-1.047 -4.6,-2.559 -6.27,-4.492 -1.68,-1.942 -2.94,-4.211 -3.78,-6.809 -0.84,-2.606 -1.25,-5.445 -1.25,-8.527 l 0,-38.618 -11.24,0 0,94.418 11.24,0"
         style="fill:#ffffff;fill-opacity:1;fill-rule:nonzero;stroke:none"
         id="path116" /><path
         d="m 1351.32,481.797 c -0.83,3.039 -2.11,5.754 -3.84,8.129 -1.72,2.379 -3.93,4.273 -6.61,5.687 -2.68,1.407 -5.84,2.114 -9.44,2.114 -3.81,0 -7.03,-0.75 -9.67,-2.243 -2.65,-1.504 -4.8,-3.464 -6.47,-5.89 -1.68,-2.426 -2.9,-5.176 -3.64,-8.262 -0.75,-3.09 -1.12,-6.219 -1.12,-9.391 0,-3.351 0.41,-6.589 1.17,-9.718 0.8,-3.137 2.07,-5.883 3.78,-8.262 1.72,-2.383 3.95,-4.305 6.68,-5.754 2.73,-1.461 6.03,-2.184 9.91,-2.184 3.89,0 7.13,0.747 9.74,2.247 2.58,1.496 4.67,3.484 6.28,5.953 1.58,2.465 2.71,5.289 3.42,8.465 0.71,3.167 1.07,6.429 1.07,9.785 0,3.172 -0.42,6.277 -1.26,9.324 z m -40.38,50.312 0,-35.308 0.25,0 c 1.85,3.789 4.75,6.543 8.72,8.265 3.98,1.719 8.34,2.575 13.1,2.575 5.28,0 9.89,-0.969 13.83,-2.907 3.9,-1.941 7.16,-4.562 9.77,-7.871 2.59,-3.304 4.56,-7.117 5.88,-11.433 1.32,-4.321 1.98,-8.907 1.98,-13.75 0,-4.856 -0.63,-9.438 -1.91,-13.758 -1.28,-4.317 -3.23,-8.094 -5.82,-11.305 -2.61,-3.219 -5.86,-5.754 -9.78,-7.601 -3.93,-1.852 -8.48,-2.778 -13.68,-2.778 -1.69,0 -3.56,0.18 -5.64,0.532 -2.06,0.347 -4.11,0.921 -6.15,1.714 -2.01,0.797 -3.94,1.871 -5.75,3.239 -1.8,1.367 -3.33,3.066 -4.55,5.093 l -0.25,0 0,-9.125 -11.26,0 0,94.418 11.26,0"
         style="fill:#ffffff;fill-opacity:1;fill-rule:nonzero;stroke:none"
         id="path118" /><path
         d="m 1422.72,485.957 c -1,2.379 -2.38,4.434 -4.09,6.152 -1.73,1.715 -3.75,3.082 -6.09,4.102 -2.33,1.008 -4.91,1.516 -7.73,1.516 -2.92,0 -5.54,-0.508 -7.87,-1.516 -2.33,-1.02 -4.34,-2.406 -6.01,-4.168 -1.67,-1.762 -3,-3.816 -3.98,-6.152 -0.96,-2.336 -1.54,-4.828 -1.71,-7.469 l 39.27,0 c -0.16,2.641 -0.78,5.156 -1.79,7.535 z m 2.71,-43.906 c -5.11,-3.875 -11.53,-5.813 -19.3,-5.813 -5.47,0 -10.21,0.879 -14.22,2.649 -4,1.758 -7.38,4.226 -10.11,7.402 -2.73,3.176 -4.78,6.965 -6.15,11.371 -1.37,4.406 -2.13,9.211 -2.31,14.414 0,5.196 0.79,9.961 2.38,14.281 1.58,4.325 3.81,8.063 6.68,11.239 2.86,3.172 6.25,5.644 10.18,7.406 3.91,1.762 8.21,2.641 12.89,2.641 6.08,0 11.12,-1.254 15.14,-3.762 4.01,-2.516 7.23,-5.711 9.65,-9.586 2.43,-3.883 4.11,-8.117 5.03,-12.699 0.93,-4.586 1.29,-8.949 1.12,-13.094 l -51.17,0 c -0.09,-2.996 0.26,-5.84 1.05,-8.527 0.8,-2.692 2.08,-5.071 3.85,-7.141 1.74,-2.07 4,-3.723 6.74,-4.957 2.73,-1.234 5.95,-1.852 9.64,-1.852 4.77,0 8.67,1.102 11.71,3.301 3.04,2.203 5.05,5.559 6.02,10.055 l 11.1,0 c -1.49,-7.668 -4.8,-13.445 -9.92,-17.328"
         style="fill:#ffffff;fill-opacity:1;fill-rule:nonzero;stroke:none"
         id="path120" /><path
         d="m 1459.29,506.059 0,-68.368 -11.25,0 0,68.368 11.25,0 z m -11.25,12.3 0,13.75 11.25,0 0,-13.75 -11.25,0"
         style="fill:#ffffff;fill-opacity:1;fill-rule:nonzero;stroke:none"
         id="path122" /></g></g></svg>