<?xml version="1.0" encoding="UTF-8" standalone="no"?> <!-- Created with Vectornator Pro for iOS (http://vectornator.io/) --><!DOCTYPE svg PUBLIC "-//W3C//DTD SVG 1.1//EN" "http://www.w3.org/Graphics/SVG/1.1/DTD/svg11.dtd">
<svg height="100%" style="fill-rule:evenodd;clip-rule:evenodd;stroke-linecap:round;stroke-linejoin:round;" xmlns:xlink="http://www.w3.org/1999/xlink" xmlns="http://www.w3.org/2000/svg" xml:space="preserve" width="100%" xmlns:vectornator="http://vectornator.io" version="1.1" viewBox="0 0 1000 1000">
<metadata>
<vectornator:setting key="RulersVisible" value="1"/>
<vectornator:setting key="OutlineMode" value="0"/>
<vectornator:setting key="GridSpacing" value="50"/>
<vectornator:setting key="Units" value="Pixels"/>
<vectornator:setting key="DynamicGuides" value="0"/>
<vectornator:setting key="SnapToPoints" value="0"/>
<vectornator:setting key="CMYKEnabledKey" value="0"/>
<vectornator:setting key="SnapToGrid" value="0"/>
<vectornator:setting key="ShowGrid" value="1"/>
<vectornator:setting key="SnapToEdges" value="0"/>
</metadata>
<defs/>
<g id="Layer 1" vectornator:layerName="Layer 1">
<path d="M0+0L1000+0L1000+1000L0+1000L0+0Z" stroke="#000000" stroke-width="1" fill="#0090ff" opacity="1" stroke-linejoin="round"/>
<text x="0" font-family="Futura-Medium" y="0" text-anchor="middle" vectornator:text="make" fill="#ffffff" font-size="200" vectornator:width="643.567" opacity="0" transform="matrix(1 0 0 1 204.565 380.552)">
<tspan x="321.783" y="208" textLength="485.156">
make</tspan>
</text>
<g opacity="0">
<path d="M85.7178+474.868L125.123+474.868L125.123+490.63C132.712+482.691+139.192+477.32+144.563+474.518C150.284+471.599+157.465+470.139+166.105+470.139C185.37+470.139+200.606+478.546+211.815+495.359C224.191+478.546+240.946+470.139+262.079+470.139C300.492+470.139+319.698+493.432+319.698+540.019L319.698+645.451L280.118+645.451L280.118+550.702C280.118+534.356+278.133+522.797+274.163+516.025C270.077+509.136+263.363+505.692+254.023+505.692C243.164+505.692+235.254+509.778+230.292+517.952C225.33+526.125+222.849+539.26+222.849+557.357L222.849+645.451L183.268+645.451L183.268+551.228C183.268+520.87+174.511+505.692+156.998+505.692C145.906+505.692+137.82+509.837+132.742+518.127C127.663+526.417+125.123+539.493+125.123+557.357L125.123+645.451L85.7178+645.451L85.7178+474.868Z" opacity="1" fill="#ffffff"/>
<path d="M495.184+474.868L534.764+474.868L534.764+645.451L495.184+645.451L495.184+627.587C478.955+642.766+461.499+650.355+442.818+650.355C419.233+650.355+399.735+641.832+384.323+624.785C369.028+607.388+361.381+585.671+361.381+559.634C361.381+534.064+369.028+512.756+384.323+495.709C399.618+478.662+418.766+470.139+441.768+470.139C461.616+470.139+479.422+478.312+495.184+494.658L495.184+474.868ZM401.662+559.634C401.662+575.98+406.04+589.291+414.797+599.565C423.787+609.957+435.112+615.152+448.773+615.152C463.368+615.152+475.16+610.132+484.15+600.091C493.141+589.699+497.636+576.506+497.636+560.51C497.636+544.514+493.141+531.32+484.15+520.929C475.16+510.771+463.484+505.692+449.123+505.692C435.579+505.692+424.254+510.829+415.147+521.104C406.157+531.495+401.662+544.339+401.662+559.634Z" opacity="1" fill="#ffffff"/>
<path d="M623.908+349.645L623.908+530.036L679.426+474.868L732.317+474.868L658.235+546.499L737.746+645.451L686.607+645.451L630.213+573.47L623.908+579.775L623.908+645.451L584.503+645.451L584.503+349.645L623.908+349.645Z" opacity="1" fill="#ffffff"/>
<path d="M912.706+569.442L790.462+569.442C791.512+583.453+796.066+594.603+804.122+602.893C812.178+611.066+822.511+615.152+835.121+615.152C844.929+615.152+853.043+612.817+859.465+608.147C865.77+603.477+872.95+594.837+881.007+582.227L914.282+600.791C909.145+609.548+903.716+617.05+897.995+623.296C892.274+629.543+886.144+634.68+879.605+638.708C873.067+642.737+866.003+645.685+858.414+647.553C850.825+649.421+842.594+650.355+833.72+650.355C808.267+650.355+787.835+642.182+772.423+625.836C757.011+609.373+749.305+587.539+749.305+560.335C749.305+533.364+756.777+511.53+771.722+494.833C786.784+478.371+806.749+470.139+831.618+470.139C856.721+470.139+876.57+478.137+891.164+494.133C905.642+510.012+912.881+532.021+912.881+560.16L912.706+569.442ZM872.25+537.217C866.762+516.2+853.51+505.692+832.494+505.692C827.707+505.692+823.212+506.422+819.009+507.881C814.805+509.341+810.982+511.442+807.537+514.186C804.093+516.93+801.145+520.228+798.693+524.081C796.241+527.934+794.373+532.313+793.089+537.217L872.25+537.217Z" opacity="1" fill="#ffffff"/>
</g>
<g opacity="1">
<path d="M154.346+473.296L193.752+473.296L193.752+489.059C201.341+481.119+207.821+475.748+213.192+472.946C218.913+470.027+226.093+468.568+234.733+468.568C253.998+468.568+269.235+476.974+280.444+493.787C292.82+476.974+309.574+468.568+330.707+468.568C369.12+468.568+388.327+491.861+388.327+538.447L388.327+643.88L348.746+643.88L348.746+549.13C348.746+532.784+346.761+521.225+342.792+514.453C338.705+507.565+331.992+504.12+322.651+504.12C311.793+504.12+303.883+508.207+298.92+516.38C293.958+524.553+291.477+537.688+291.477+555.786L291.477+643.88L251.897+643.88L251.897+549.656C251.897+519.299+243.14+504.12+225.626+504.12C214.534+504.12+206.449+508.265+201.37+516.555C196.291+524.845+193.752+537.922+193.752+555.786L193.752+643.88L154.346+643.88L154.346+473.296Z" opacity="1" fill="#ffffff"/>
<path d="M539.879+349.647L539.879+473.303L539.816+473.303L539.816+493.085C524.054+476.738+506.258+468.553+486.41+468.553C463.409+468.553+444.236+477.1+428.941+494.147C413.646+511.194+406.004+532.483+406.004+558.053C406.003+584.09+413.646+605.813+428.941+623.21C444.353+640.256+463.856+648.772+487.441+648.772C506.122+648.772+523.587+641.201+539.816+626.022L539.816+643.866L540.254+643.866L539.879+645.46L579.285+645.46L579.285+643.866L579.379+643.866L579.379+579.678L585.597+573.46L641.972+645.46L693.129+645.46L613.597+546.491L687.691+474.866L634.785+474.866L579.379+529.928L579.379+473.303L579.285+473.303L579.285+349.647L539.879+349.647ZM493.754+504.116C508.115+504.116+519.795+509.208+528.785+519.366C537.775+529.757+542.254+542.932+542.254+558.928C542.254+574.924+537.775+588.131+528.785+598.522C519.795+608.563+508.004+613.585+493.41+613.585C479.749+613.585+468.4+608.382+459.41+597.991C450.653+587.716+446.285+574.399+446.285+558.053C446.285+542.758+450.795+529.914+459.785+519.522C468.892+509.247+480.21+504.116+493.754+504.116Z" opacity="1" fill="#ffffff"/>
<path d="M844.077+569.44L721.833+569.44C722.884+583.451+727.437+594.601+735.494+602.891C743.55+611.064+753.883+615.15+766.493+615.15C776.3+615.15+784.415+612.815+790.836+608.145C797.141+603.475+804.322+594.835+812.378+582.225L845.654+600.789C840.516+609.546+835.087+617.048+829.366+623.294C823.645+629.541+817.515+634.678+810.977+638.706C804.439+642.734+797.375+645.683+789.786+647.551C782.196+649.419+773.965+650.353+765.091+650.353C739.639+650.353+719.206+642.18+703.794+625.834C688.382+609.371+680.676+587.537+680.676+560.333C680.676+533.361+688.149+511.528+703.094+494.831C718.155+478.368+738.121+470.137+762.99+470.137C788.093+470.137+807.941+478.135+822.536+494.131C837.014+510.01+844.253+532.019+844.253+560.157L844.077+569.44ZM803.621+537.214C798.134+516.198+784.882+505.69+763.866+505.69C759.079+505.69+754.583+506.42+750.38+507.879C746.177+509.339+742.353+511.44+738.909+514.184C735.464+516.928+732.516+520.226+730.064+524.079C727.613+527.932+725.744+532.311+724.46+537.214L803.621+537.214Z" opacity="1" fill="#ffffff"/>
</g>
<path d="M470.55+551.695L427.031+551.695L415.707+576.385L399.181+576.385L449.482+468.343L498.005+576.385L481.216+576.385L470.55+551.695ZM464.296+537.276L449.219+502.711L433.417+537.276L464.296+537.276Z" opacity="0" fill="#ffffff"/>
<path d="M252.09+470.521L276.523+470.521L276.523+480.294C281.228+475.371+285.246+472.041+288.576+470.304C292.123+468.494+296.576+467.589+301.933+467.589C313.877+467.589+323.325+472.801+330.274+483.226C337.948+472.801+348.336+467.589+361.44+467.589C385.257+467.589+397.166+482.031+397.166+510.916L397.166+576.287L372.624+576.287L372.624+517.54C372.624+507.405+371.394+500.238+368.932+496.039C366.399+491.768+362.236+489.633+356.444+489.633C349.712+489.633+344.807+492.166+341.731+497.234C338.654+502.301+337.116+510.446+337.116+521.667L337.116+576.287L312.574+576.287L312.574+517.866C312.574+499.044+307.145+489.633+296.286+489.633C289.409+489.633+284.395+492.203+281.246+497.342C278.097+502.482+276.523+510.59+276.523+521.667L276.523+576.287L252.09+576.287L252.09+470.521Z" opacity="0" fill="#ffffff"/>
<text stroke="#ffffff" stroke-width="6" x="0" font-family="Futura-Medium" y="0" fill="#ad0023" font-size="182" vectornator:width="365.893" opacity="1" text-anchor="middle" transform="matrix(1 0 0 1 589.259 575.555)" stroke-linejoin="round" vectornator:text="app">
<tspan x="182.947" y="189" textLength="327.387">
app</tspan>
</text>
</g>
</svg>
